<mxfile host="app.diagrams.net" modified="2023-12-11T08:44:29.665Z" agent="Mozilla/5.0 (Windows NT 10.0; Win64; x64) AppleWebKit/537.36 (KHTML, like Gecko) Chrome/120.0.0.0 Safari/537.36 Edg/120.0.0.0" etag="OsWsyb8R8QGLuwn-5qMW" version="22.1.7" type="device">
  <diagram name="Page-1" id="r36J6h5kCeRiJSEMjBj8">
    <mxGraphModel dx="983" dy="554" grid="1" gridSize="10" guides="1" tooltips="1" connect="1" arrows="1" fold="1" page="1" pageScale="1" pageWidth="827" pageHeight="1169" math="0" shadow="0">
      <root>
        <mxCell id="0" />
        <mxCell id="1" parent="0" />
        <mxCell id="LhPzvOSyuNsZhz-VoD_M-1" value="" style="rounded=0;whiteSpace=wrap;html=1;" vertex="1" parent="1">
          <mxGeometry x="130" y="100" width="640" height="530" as="geometry" />
        </mxCell>
        <mxCell id="LhPzvOSyuNsZhz-VoD_M-2" value="USED AT" style="rounded=0;whiteSpace=wrap;html=1;" vertex="1" parent="1">
          <mxGeometry x="130" y="100" width="80" height="50" as="geometry" />
        </mxCell>
        <mxCell id="LhPzvOSyuNsZhz-VoD_M-3" value="" style="rounded=0;whiteSpace=wrap;html=1;" vertex="1" parent="1">
          <mxGeometry x="210" y="100" width="250" height="50" as="geometry" />
        </mxCell>
        <mxCell id="LhPzvOSyuNsZhz-VoD_M-4" value="" style="rounded=0;whiteSpace=wrap;html=1;" vertex="1" parent="1">
          <mxGeometry x="460" y="100" width="30" height="10" as="geometry" />
        </mxCell>
        <mxCell id="LhPzvOSyuNsZhz-VoD_M-5" value="" style="rounded=0;whiteSpace=wrap;html=1;" vertex="1" parent="1">
          <mxGeometry x="460" y="110" width="30" height="10" as="geometry" />
        </mxCell>
        <mxCell id="LhPzvOSyuNsZhz-VoD_M-6" value="" style="rounded=0;whiteSpace=wrap;html=1;" vertex="1" parent="1">
          <mxGeometry x="460" y="120" width="30" height="10" as="geometry" />
        </mxCell>
        <mxCell id="LhPzvOSyuNsZhz-VoD_M-7" value="" style="rounded=0;whiteSpace=wrap;html=1;" vertex="1" parent="1">
          <mxGeometry x="460" y="130" width="30" height="10" as="geometry" />
        </mxCell>
        <mxCell id="LhPzvOSyuNsZhz-VoD_M-8" value="" style="rounded=0;whiteSpace=wrap;html=1;" vertex="1" parent="1">
          <mxGeometry x="460" y="140" width="30" height="10" as="geometry" />
        </mxCell>
        <mxCell id="LhPzvOSyuNsZhz-VoD_M-10" value="" style="rounded=0;whiteSpace=wrap;html=1;" vertex="1" parent="1">
          <mxGeometry x="490" y="100" width="120" height="10" as="geometry" />
        </mxCell>
        <mxCell id="LhPzvOSyuNsZhz-VoD_M-11" value="" style="rounded=0;whiteSpace=wrap;html=1;" vertex="1" parent="1">
          <mxGeometry x="610" y="110" width="120" height="10" as="geometry" />
        </mxCell>
        <mxCell id="LhPzvOSyuNsZhz-VoD_M-12" value="" style="rounded=0;whiteSpace=wrap;html=1;" vertex="1" parent="1">
          <mxGeometry x="490" y="120" width="120" height="10" as="geometry" />
        </mxCell>
        <mxCell id="LhPzvOSyuNsZhz-VoD_M-13" value="" style="rounded=0;whiteSpace=wrap;html=1;" vertex="1" parent="1">
          <mxGeometry x="490" y="130" width="120" height="10" as="geometry" />
        </mxCell>
        <mxCell id="LhPzvOSyuNsZhz-VoD_M-14" value="" style="rounded=0;whiteSpace=wrap;html=1;" vertex="1" parent="1">
          <mxGeometry x="490" y="140" width="120" height="10" as="geometry" />
        </mxCell>
        <mxCell id="LhPzvOSyuNsZhz-VoD_M-15" value="" style="rounded=0;whiteSpace=wrap;html=1;" vertex="1" parent="1">
          <mxGeometry x="610" y="100" width="120" height="10" as="geometry" />
        </mxCell>
        <mxCell id="LhPzvOSyuNsZhz-VoD_M-16" value="" style="rounded=0;whiteSpace=wrap;html=1;" vertex="1" parent="1">
          <mxGeometry x="610" y="120" width="120" height="10" as="geometry" />
        </mxCell>
        <mxCell id="LhPzvOSyuNsZhz-VoD_M-17" value="" style="rounded=0;whiteSpace=wrap;html=1;" vertex="1" parent="1">
          <mxGeometry x="610" y="130" width="120" height="10" as="geometry" />
        </mxCell>
        <mxCell id="LhPzvOSyuNsZhz-VoD_M-18" value="" style="rounded=0;whiteSpace=wrap;html=1;" vertex="1" parent="1">
          <mxGeometry x="610" y="140" width="120" height="10" as="geometry" />
        </mxCell>
        <mxCell id="LhPzvOSyuNsZhz-VoD_M-19" value="" style="rounded=0;whiteSpace=wrap;html=1;" vertex="1" parent="1">
          <mxGeometry x="610" y="100" width="120" height="10" as="geometry" />
        </mxCell>
        <mxCell id="LhPzvOSyuNsZhz-VoD_M-20" value="" style="rounded=0;whiteSpace=wrap;html=1;" vertex="1" parent="1">
          <mxGeometry x="720" y="100" width="50" height="50" as="geometry" />
        </mxCell>
        <mxCell id="LhPzvOSyuNsZhz-VoD_M-21" value="&lt;br&gt;Реєстрація нового пацієнта&amp;nbsp; &amp;nbsp; &amp;nbsp; &amp;nbsp; &amp;nbsp; &amp;nbsp; &amp;nbsp; &amp;nbsp; &amp;nbsp; &amp;nbsp; &amp;nbsp; &amp;nbsp;A0" style="rounded=0;whiteSpace=wrap;html=1;" vertex="1" parent="1">
          <mxGeometry x="402.5" y="310" width="97.5" height="90" as="geometry" />
        </mxCell>
        <mxCell id="LhPzvOSyuNsZhz-VoD_M-24" value="Дані про пацієнта" style="text;html=1;strokeColor=none;fillColor=none;align=center;verticalAlign=middle;whiteSpace=wrap;rounded=0;" vertex="1" parent="1">
          <mxGeometry x="416.25" y="200" width="70" height="30" as="geometry" />
        </mxCell>
        <mxCell id="LhPzvOSyuNsZhz-VoD_M-26" value="" style="html=1;shadow=0;dashed=0;align=center;verticalAlign=middle;shape=mxgraph.arrows2.arrow;dy=0.6;dx=40;notch=0;" vertex="1" parent="1">
          <mxGeometry x="330" y="340" width="70" height="25" as="geometry" />
        </mxCell>
        <mxCell id="LhPzvOSyuNsZhz-VoD_M-27" value="" style="html=1;shadow=0;dashed=0;align=center;verticalAlign=middle;shape=mxgraph.arrows2.arrow;dy=0.6;dx=40;direction=south;notch=0;" vertex="1" parent="1">
          <mxGeometry x="435.15" y="240" width="32.19" height="70" as="geometry" />
        </mxCell>
        <mxCell id="LhPzvOSyuNsZhz-VoD_M-28" value="Порядок реєстрації нового пацієнта" style="text;html=1;strokeColor=none;fillColor=none;align=center;verticalAlign=middle;whiteSpace=wrap;rounded=0;" vertex="1" parent="1">
          <mxGeometry x="260" y="340" width="60" height="30" as="geometry" />
        </mxCell>
        <mxCell id="LhPzvOSyuNsZhz-VoD_M-29" value="" style="html=1;shadow=0;dashed=0;align=center;verticalAlign=middle;shape=mxgraph.arrows2.arrow;dy=0.6;dx=40;direction=north;notch=0;" vertex="1" parent="1">
          <mxGeometry x="434.37" y="400" width="33.75" height="70" as="geometry" />
        </mxCell>
        <mxCell id="LhPzvOSyuNsZhz-VoD_M-30" value="Працівник реєстраційного відділу або лікар" style="text;html=1;strokeColor=none;fillColor=none;align=center;verticalAlign=middle;whiteSpace=wrap;rounded=0;" vertex="1" parent="1">
          <mxGeometry x="421.25" y="490" width="60" height="30" as="geometry" />
        </mxCell>
        <mxCell id="LhPzvOSyuNsZhz-VoD_M-32" value="" style="html=1;shadow=0;dashed=0;align=center;verticalAlign=middle;shape=mxgraph.arrows2.arrow;dy=0.6;dx=40;notch=0;" vertex="1" parent="1">
          <mxGeometry x="500" y="340" width="70" height="25" as="geometry" />
        </mxCell>
        <mxCell id="LhPzvOSyuNsZhz-VoD_M-33" value="Картка пацієнта або електрозапис у системі" style="text;html=1;strokeColor=none;fillColor=none;align=center;verticalAlign=middle;whiteSpace=wrap;rounded=0;" vertex="1" parent="1">
          <mxGeometry x="580" y="340" width="60" height="30" as="geometry" />
        </mxCell>
        <mxCell id="LhPzvOSyuNsZhz-VoD_M-36" value="A-0" style="rounded=0;whiteSpace=wrap;html=1;" vertex="1" parent="1">
          <mxGeometry x="130" y="580" width="80" height="50" as="geometry" />
        </mxCell>
        <mxCell id="LhPzvOSyuNsZhz-VoD_M-37" value="NODE:" style="text;html=1;strokeColor=none;fillColor=none;align=center;verticalAlign=middle;whiteSpace=wrap;rounded=0;" vertex="1" parent="1">
          <mxGeometry x="130" y="580" width="40" height="10" as="geometry" />
        </mxCell>
        <mxCell id="LhPzvOSyuNsZhz-VoD_M-38" value="Реєстрація нового пацієнта" style="rounded=0;whiteSpace=wrap;html=1;" vertex="1" parent="1">
          <mxGeometry x="210" y="580" width="410" height="50" as="geometry" />
        </mxCell>
        <mxCell id="LhPzvOSyuNsZhz-VoD_M-39" value="TITTLE" style="text;html=1;strokeColor=none;fillColor=none;align=center;verticalAlign=middle;whiteSpace=wrap;rounded=0;" vertex="1" parent="1">
          <mxGeometry x="200" y="580" width="60" height="10" as="geometry" />
        </mxCell>
        <mxCell id="LhPzvOSyuNsZhz-VoD_M-40" value="" style="rounded=0;whiteSpace=wrap;html=1;" vertex="1" parent="1">
          <mxGeometry x="620" y="580" width="150" height="50" as="geometry" />
        </mxCell>
        <mxCell id="LhPzvOSyuNsZhz-VoD_M-41" value="NUMBER" style="text;html=1;strokeColor=none;fillColor=none;align=center;verticalAlign=middle;whiteSpace=wrap;rounded=0;" vertex="1" parent="1">
          <mxGeometry x="620" y="580" width="60" height="10" as="geometry" />
        </mxCell>
        <mxCell id="LhPzvOSyuNsZhz-VoD_M-42" value="" style="rounded=0;whiteSpace=wrap;html=1;" vertex="1" parent="1">
          <mxGeometry x="710" y="610" width="60" height="20" as="geometry" />
        </mxCell>
      </root>
    </mxGraphModel>
  </diagram>
</mxfile>
